<svg width="133" height="132" viewBox="0 0 133 132" fill="none" xmlns="http://www.w3.org/2000/svg">
<g clip-path="url(#clip0_954_21759)">
<circle cx="65.5" cy="65.5" r="10.5" fill="#A755F7"/>
<path d="M120.59 11.7758C126.931 18.1244 128.666 29.7317 123.918 45.1073C119.252 60.213 108.67 77.4812 93.0666 93.0661C77.4632 108.651 60.1825 119.213 45.0712 123.86C29.69 128.591 18.0848 126.842 11.7438 120.493C5.40275 114.144 3.66735 102.537 8.41589 87.1615C13.0811 72.0558 23.6636 54.7876 39.267 39.2027C54.8704 23.6178 72.1511 13.0558 87.2624 8.40846C102.644 3.67814 114.249 5.42729 120.59 11.7758Z" stroke="#A755F7" stroke-width="11.093"/>
<path d="M11.7438 11.7758C5.40278 18.1244 3.66739 29.7317 8.41593 45.1073C13.0811 60.213 23.6636 77.4812 39.267 93.0661C54.8704 108.651 72.1511 119.213 87.2624 123.86C102.644 128.591 114.249 126.842 120.59 120.493C126.931 114.144 128.666 102.537 123.918 87.1615C119.253 72.0558 108.67 54.7876 93.0666 39.2027C77.4632 23.6178 60.1825 13.0558 45.0713 8.40846C29.6901 3.67814 18.0848 5.42729 11.7438 11.7758Z" stroke="#A755F7" stroke-width="11.093"/>
</g>
<defs>
<clipPath id="clip0_954_21759">
<rect width="133" height="132" fill="white"/>
</clipPath>
</defs>
</svg>
