<svg width="11" height="12" viewBox="0 0 11 12" fill="none" xmlns="http://www.w3.org/2000/svg">
<path d="M9.86014 3.99888L3.42014 0.305545C3.07167 0.104318 2.67614 -0.00109666 2.27374 8.60276e-06C1.87134 0.00111387 1.47639 0.108699 1.12903 0.311838C0.781661 0.514976 0.494246 0.80643 0.295973 1.1566C0.0977003 1.50676 -0.00436531 1.90317 0.000143141 2.30554V9.71888C0.000143141 10.3236 0.240357 10.9035 0.66794 11.3311C1.09552 11.7587 1.67545 11.9989 2.28014 11.9989C2.68043 11.9982 3.07353 11.8925 3.42014 11.6922L9.86014 7.99888C10.2062 7.7986 10.4935 7.51086 10.6932 7.1645C10.8929 6.81815 10.9981 6.42536 10.9981 6.02554C10.9981 5.62573 10.8929 5.23294 10.6932 4.88659C10.4935 4.54023 10.2062 4.25248 9.86014 4.05221V3.99888ZM9.19348 6.79221L2.75348 10.5389C2.60913 10.6207 2.44605 10.6637 2.28014 10.6637C2.11423 10.6637 1.95115 10.6207 1.80681 10.5389C1.66287 10.4558 1.54335 10.3362 1.46027 10.1923C1.37718 10.0484 1.33345 9.88508 1.33348 9.71888V2.27888C1.33345 2.11268 1.37718 1.9494 1.46027 1.80545C1.54335 1.66151 1.66287 1.54198 1.80681 1.45888C1.95175 1.37832 2.11434 1.3348 2.28014 1.33221C2.44583 1.33561 2.60823 1.37907 2.75348 1.45888L9.19348 5.17888C9.33746 5.26194 9.45704 5.38146 9.54018 5.5254C9.62332 5.66935 9.66709 5.83265 9.66709 5.99888C9.66709 6.16511 9.62332 6.32841 9.54018 6.47235C9.45704 6.6163 9.33746 6.73581 9.19348 6.81888V6.79221Z" fill="#A755F7"/>
</svg>
