<svg width="17" height="17" viewBox="0 0 17 17" fill="none" xmlns="http://www.w3.org/2000/svg">
<path d="M8.33334 2.87116e-08C6.68516 2.87116e-08 5.07399 0.488742 3.70358 1.40442C2.33318 2.3201 1.26507 3.62159 0.634341 5.1443C0.0036107 6.66702 -0.161417 8.34258 0.160126 9.95909C0.48167 11.5756 1.27534 13.0605 2.44078 14.2259C3.60622 15.3913 5.09108 16.185 6.70758 16.5065C8.32409 16.8281 9.99965 16.6631 11.5224 16.0323C13.0451 15.4016 14.3466 14.3335 15.2622 12.9631C16.1779 11.5927 16.6667 9.98151 16.6667 8.33333C16.6668 7.23896 16.4513 6.15528 16.0325 5.1442C15.6138 4.13311 14.9999 3.21441 14.2261 2.44057C13.4523 1.66673 12.5336 1.05291 11.5225 0.634152C10.5114 0.215395 9.42771 -9.08157e-05 8.33334 2.87116e-08ZM10.9829 12.6271C10.9517 12.7048 10.9043 12.775 10.8437 12.833C10.7832 12.8909 10.711 12.9352 10.6319 12.963C10.5528 12.9907 10.4687 13.0012 10.3853 12.9938C10.3018 12.9864 10.2209 12.9612 10.1479 12.92L7.8857 11.1622L6.43377 12.5017C6.40008 12.5266 6.36067 12.5426 6.31917 12.5482C6.27767 12.5539 6.2354 12.5491 6.19627 12.5341L6.4746 10.0437L6.48351 10.0508L6.4892 10.0016C6.4892 10.0016 10.56 6.29537 10.7259 6.13747C10.8938 5.97997 10.8384 5.9458 10.8384 5.9458C10.8479 5.75369 10.5371 5.9458 10.5371 5.9458L5.14334 9.41583L2.8971 8.65083C2.8971 8.65083 2.5521 8.52708 2.5196 8.255C2.48543 7.985 2.90834 7.83833 2.90834 7.83833L11.8392 4.29041C11.8392 4.29041 12.5733 3.96331 12.5733 4.505L10.9829 12.6271Z" fill="white"/>
</svg>
