  <svg
    xmlns="http://www.w3.org/2000/svg"
    width="46"
    height="33"
    viewBox="0 0 46 33"
    fill="none"
  >
    <g clipPath="url(#clip0_84_2047)">
      <mask
        id="mask0_84_2047"
        maskUnits="userSpaceOnUse"
        x="0"
        y="0"
        width="46"
        height="33"
      >
        <path
          d="M41.619 0.208984H4.38095C1.96142 0.208984 0 2.15406 0 4.55343V28.4479C0 30.8472 1.96142 32.7923 4.38095 32.7923H41.619C44.0386 32.7923 46 30.8472 46 28.4479V4.55343C46 2.15406 44.0386 0.208984 41.619 0.208984Z"
          fill="white"
        />
      </mask>
      <g mask="url(#mask0_84_2047)">
        <path
          d="M41.619 0.208984H4.38095C1.96142 0.208984 0 2.15406 0 4.55343V28.4479C0 30.8472 1.96142 32.7923 4.38095 32.7923H41.619C44.0386 32.7923 46 30.8472 46 28.4479V4.55343C46 2.15406 44.0386 0.208984 41.619 0.208984Z"
          fill="#0034A9"
        />
        <path
          fillRule="evenodd"
          clipRule="evenodd"
          d="M0 21.9316H46V32.7928H0V21.9316Z"
          fill="#D7280F"
        />
        <path
          fillRule="evenodd"
          clipRule="evenodd"
          d="M0 0.208984H46V11.0701H0V0.208984Z"
          fill="white"
        />
        <path
          d="M41.619 1.29492H4.38093C2.56628 1.29492 1.09521 2.75373 1.09521 4.55326V28.4477C1.09521 30.2472 2.56628 31.706 4.38093 31.706H41.619C43.4337 31.706 44.9047 30.2472 44.9047 28.4477V4.55326C44.9047 2.75373 43.4337 1.29492 41.619 1.29492Z"
          stroke="black"
          strokeOpacity="0.1"
        />
      </g>
    </g>
    <defs>
      <clipPath id="clip0_84_2047">
        <rect
          width="46"
          height="32.5833"
          fill="white"
          transform="translate(0 0.208984)"
        />
      </clipPath>
    </defs>
  </svg>