 <svg
    xmlns="http://www.w3.org/2000/svg"
    width="47"
    height="33"
    viewBox="0 0 47 33"
    fill="none"
  >
    <g clipPath="url(#clip0_84_2044)">
      <mask
        id="mask0_84_2044"
        maskUnits="userSpaceOnUse"
        x="0"
        y="0"
        width="47"
        height="33"
      >
        <path
          d="M42.2856 0.208984H5.04746C2.62792 0.208984 0.666504 2.15406 0.666504 4.55343V28.4479C0.666504 30.8472 2.62792 32.7923 5.04746 32.7923H42.2856C44.7051 32.7923 46.6665 30.8472 46.6665 28.4479V4.55343C46.6665 2.15406 44.7051 0.208984 42.2856 0.208984Z"
          fill="white"
        />
      </mask>
      <g mask="url(#mask0_84_2044)">
        <path
          d="M42.2856 0.208984H5.04746C2.62792 0.208984 0.666504 2.15406 0.666504 4.55343V28.4479C0.666504 30.8472 2.62792 32.7923 5.04746 32.7923H42.2856C44.7051 32.7923 46.6665 30.8472 46.6665 28.4479V4.55343C46.6665 2.15406 44.7051 0.208984 42.2856 0.208984Z"
          fill="#D4112A"
        />
        <path
          fillRule="evenodd"
          clipRule="evenodd"
          d="M0.666504 24.1035H46.6665V32.7924H0.666504V24.1035Z"
          fill="#20BD42"
        />
        <path
          fillRule="evenodd"
          clipRule="evenodd"
          d="M0.666504 0.208984H46.6665V8.89787H0.666504V0.208984Z"
          fill="#02A3BD"
        />
        <path
          fillRule="evenodd"
          clipRule="evenodd"
          d="M0.666504 11.0697H46.6665V21.9309H0.666504V11.0697ZM11.6189 8.71289C11.2772 8.83236 10.907 8.89753 10.5236 8.89753C8.70993 8.89753 7.23793 7.43779 7.23793 5.63919C7.23793 3.84059 8.70993 2.38086 10.5236 2.38086C10.907 2.38086 11.2772 2.44603 11.6189 2.5655C10.3418 3.01298 9.42841 4.22073 9.42841 5.63919C9.42841 7.05765 10.3418 8.26758 11.6189 8.71289Z"
          fill="white"
        />
        <path
          fillRule="evenodd"
          clipRule="evenodd"
          d="M13.8096 4.55308H16V6.7253H13.8096V4.55308ZM16 2.38086H18.1905V4.55308H16V2.38086ZM18.1905 4.55308H20.381V6.7253H18.1905V4.55308ZM20.381 2.38086H22.5715V4.55308H20.381V2.38086ZM22.5715 4.55308H24.7619V6.7253H22.5715V4.55308ZM20.381 6.7253H22.5715V8.89753H20.381V6.7253ZM16 6.7253H18.1905V8.89753H16V6.7253Z"
          fill="#78CDDB"
        />
        <path
          d="M42.2855 1.29492H5.04743C3.23278 1.29492 1.76172 2.75373 1.76172 4.55326V28.4477C1.76172 30.2472 3.23278 31.706 5.04743 31.706H42.2855C44.1002 31.706 45.5712 30.2472 45.5712 28.4477V4.55326C45.5712 2.75373 44.1002 1.29492 42.2855 1.29492Z"
          stroke="black"
          strokeOpacity="0.1"
        />
      </g>
    </g>
    <defs>
      <clipPath id="clip0_84_2044">
        <rect
          width="46"
          height="32.5833"
          fill="white"
          transform="translate(0.666504 0.208984)"
        />
      </clipPath>
    </defs>
  </svg>